<svg xmlns="http://www.w3.org/2000/svg" xmlns:xlink="http://www.w3.org/1999/xlink" width="2000" zoomAndPan="magnify" viewBox="0 0 1500 1499.999933" height="2000" preserveAspectRatio="xMidYMid meet" version="1.0"><defs><g/><clipPath id="befb913508"><path d="M 27.355469 25.980469 L 1472.605469 25.980469 L 1472.605469 427.980469 L 27.355469 427.980469 Z M 27.355469 25.980469 " clip-rule="nonzero"/></clipPath><clipPath id="edb8878078"><path d="M 11.550781 548.894531 L 1488.300781 548.894531 L 1488.300781 1475 L 11.550781 1475 Z M 11.550781 548.894531 " clip-rule="nonzero"/></clipPath></defs><rect x="-150" width="1800" fill="#ffffff" y="-149.999993" height="1799.99992" fill-opacity="1"/><rect x="-150" width="1800" fill="#ffffff" y="-149.999993" height="1799.99992" fill-opacity="1"/><g clip-path="url(#befb913508)"><path fill="#0097b2" d="M 75.449219 410.632812 C 59.59375 416.492188 43.851562 422.621094 27.84375 428.25 C 41.9375 418.828125 56.300781 409.90625 70.511719 400.75 L 113.597656 374.054688 C 142.324219 356.246094 171.316406 339.085938 200.347656 321.890625 C 223.023438 308.5625 245.773438 295.425781 268.5625 282.363281 L 268.5625 25.980469 L 388.941406 25.980469 L 388.941406 214.917969 C 443.632812 184.8125 498.671875 155.320312 553.898438 126.328125 C 583.660156 110.625 613.648438 95.382812 643.523438 79.871094 L 733.566406 34.292969 L 750 25.980469 L 766.46875 34.292969 L 856.550781 79.832031 L 946.171875 126.25 C 1005.730469 157.542969 1065.132812 189.257812 1124.039062 221.851562 C 1182.984375 254.445312 1241.621094 287.613281 1299.722656 321.8125 C 1328.757812 339.011719 1357.75 356.207031 1386.476562 373.980469 L 1429.523438 400.675781 C 1443.734375 409.867188 1458.097656 418.789062 1472.152344 428.210938 C 1456.144531 422.621094 1440.402344 416.492188 1424.546875 410.632812 L 1377.320312 392.210938 C 1345.839844 379.914062 1314.699219 367.046875 1283.523438 354.140625 C 1221.285156 328.171875 1159.542969 301.171875 1098.148438 273.554688 C 1036.714844 245.980469 975.742188 217.484375 914.957031 188.605469 L 824.03125 144.75 L 750 108.136719 L 675.964844 144.710938 C 645.628906 159.304688 615.449219 174.164062 585.039062 188.527344 C 524.253906 217.445312 463.242188 245.824219 401.808594 273.441406 C 397.519531 275.355469 393.230469 277.269531 388.941406 279.1875 C 367.414062 288.835938 345.8125 298.375 324.175781 307.835938 C 288.402344 323.5 252.515625 338.933594 216.433594 354.023438 C 185.296875 366.933594 154.121094 379.839844 122.636719 392.132812 Z M 75.449219 410.632812 " fill-opacity="1" fill-rule="nonzero"/></g><g clip-path="url(#edb8878078)"><path fill="#0097b2" d="M 807.203125 1363.84375 C 882.820312 1340.292969 961.183594 1323.195312 1042.292969 1312.558594 C 1163.253906 1296.695312 1286.976562 1307.457031 1407.378906 1319.25 C 1410.054688 1319.511719 1412.433594 1317.578125 1412.699219 1314.929688 C 1412.726562 1314.671875 1412.730469 1314.410156 1412.710938 1314.148438 L 1370.878906 664.746094 C 1370.601562 660.542969 1373.238281 656.710938 1377.242188 655.480469 C 1393.996094 650.289062 1429.511719 647.714844 1438.542969 668.117188 C 1441.847656 675.601562 1444.019531 686.816406 1445.046875 701.761719 C 1461.144531 938.039062 1469.238281 1057.300781 1469.332031 1059.546875 C 1470.175781 1076.953125 1472.171875 1107.257812 1475.324219 1150.464844 C 1482.496094 1248.796875 1486.863281 1319.234375 1488.425781 1361.785156 C 1489.21875 1383.777344 1467.648438 1394.308594 1448.742188 1395.992188 C 1405.878906 1399.734375 1357.542969 1398.378906 1316.832031 1399.546875 C 1159.824219 1404.101562 1006.652344 1407.347656 857.316406 1409.28125 C 854.476562 1409.3125 851.902344 1410.945312 850.671875 1413.492188 C 835.824219 1444.28125 811.898438 1463.578125 778.890625 1471.375 C 725.40625 1484.011719 669.769531 1463.1875 646.792969 1412.929688 C 645.84375 1410.835938 643.789062 1409.472656 641.503906 1409.421875 C 338.71875 1402.433594 147.941406 1398.050781 69.171875 1396.273438 C 46.992188 1395.804688 12.550781 1391.3125 11.570312 1361.738281 C 11.476562 1359.148438 11.863281 1351.351562 12.738281 1338.34375 C 19.507812 1237.140625 27.308594 1117.585938 36.136719 979.667969 C 42.5 880.886719 47.648438 784.351562 58.457031 679.628906 C 59.90625 665.167969 65.382812 656.417969 80.167969 653.609375 C 95.144531 650.800781 109.414062 651.191406 122.984375 654.78125 C 126.039062 655.597656 128.09375 658.457031 127.898438 661.609375 L 87.84375 1313.167969 C 87.640625 1316.753906 90.363281 1319.828125 93.921875 1320.03125 C 94.296875 1320.054688 94.675781 1320.042969 95.046875 1320 C 181.898438 1309.578125 265.984375 1304.710938 347.3125 1305.398438 C 461.910156 1306.382812 575.527344 1327.90625 685.257812 1363.046875 C 688.75 1364.171875 691.902344 1364.28125 694.710938 1363.375 C 696.59375 1362.738281 697.609375 1360.695312 696.972656 1358.808594 C 696.734375 1358.109375 696.289062 1357.496094 695.691406 1357.058594 C 690.949219 1353.566406 684.648438 1349.773438 676.789062 1345.6875 C 651.363281 1332.335938 620.214844 1318.640625 583.339844 1304.601562 C 442.773438 1251.164062 289.664062 1245.640625 144.414062 1279.335938 C 141.316406 1280.035156 138.234375 1278.109375 137.535156 1275.035156 C 137.425781 1274.554688 137.378906 1274.066406 137.398438 1273.578125 L 161.964844 574.433594 C 162.082031 571.390625 163.996094 568.71875 166.828125 567.648438 C 176.71875 563.875 188.042969 560.863281 200.800781 558.617188 C 287.746094 543.457031 374.84375 546.652344 462.097656 568.210938 C 550.132812 589.953125 630.460938 625.921875 703.085938 676.117188 C 707.234375 678.988281 722.085938 689.28125 747.632812 707 C 749 707.941406 750.820312 707.886719 752.125 706.859375 C 798.636719 670.269531 844.964844 643.5 900.273438 616.40625 C 932.3125 600.746094 960.746094 589.160156 985.578125 581.640625 C 1085.4375 551.363281 1191.378906 539.386719 1295.492188 557.214844 C 1309.125 559.554688 1321.324219 562.640625 1332.085938 566.480469 C 1334.683594 567.402344 1336.445312 569.835938 1336.53125 572.609375 C 1339.058594 675.773438 1341.632812 773.804688 1344.25 866.707031 C 1347.621094 985.609375 1355.855469 1126.179688 1361.097656 1250.460938 C 1361.503906 1260.195312 1361.128906 1268.507812 1359.976562 1275.402344 C 1359.527344 1278.105469 1356.949219 1279.925781 1354.222656 1279.472656 C 1354.144531 1279.460938 1354.066406 1279.445312 1353.984375 1279.425781 C 1161.414062 1236.222656 979.339844 1260.835938 807.761719 1353.269531 C 806.328125 1354.046875 804.738281 1355.453125 802.988281 1357.480469 C 801.574219 1359.160156 801.789062 1361.667969 803.46875 1363.082031 C 804.503906 1363.957031 805.910156 1364.242188 807.203125 1363.84375 Z M 1293.996094 1203.53125 C 1296.023438 1203.765625 1297.859375 1202.332031 1298.09375 1200.328125 C 1298.117188 1200.132812 1298.125 1199.9375 1298.113281 1199.738281 L 1276.496094 636.015625 C 1276.339844 632.144531 1273.398438 628.964844 1269.570312 628.53125 C 1165.828125 616.363281 1069.152344 630.730469 968.5 667.976562 C 905.328125 691.3125 844.402344 722.335938 785.722656 761.050781 C 784.292969 761.984375 783.429688 763.585938 783.429688 765.308594 L 783.429688 1297.445312 C 783.453125 1298.945312 784.683594 1300.144531 786.183594 1300.121094 C 786.628906 1300.117188 787.066406 1300 787.453125 1299.785156 C 815.625 1283.734375 850.8125 1264.269531 884.878906 1252.148438 C 913.515625 1241.917969 933.4375 1234.976562 944.636719 1231.328125 C 1045.835938 1198.070312 1147.96875 1187.199219 1251.039062 1198.710938 C 1265.609375 1200.332031 1279.929688 1201.9375 1293.996094 1203.53125 Z M 714.410156 1298.425781 C 714.972656 1296.273438 715.238281 1293.964844 715.207031 1291.5 C 714.332031 1004.25 714.238281 832.691406 714.925781 776.816406 C 715.019531 766.523438 715.765625 760.628906 707.765625 755.433594 C 676.414062 735.125 651.144531 722.957031 611.230469 702.695312 C 531.492188 662.171875 445.472656 637.324219 353.164062 628.152344 C 309.644531 623.847656 267.109375 624.722656 225.554688 630.773438 C 222.949219 631.15625 220.980469 633.359375 220.878906 636.015625 L 201.128906 1198.941406 C 201.078125 1200.726562 202.480469 1202.214844 204.261719 1202.265625 C 204.484375 1202.273438 204.703125 1202.257812 204.921875 1202.21875 C 341.417969 1177.980469 482.171875 1199.082031 610.109375 1250.183594 C 644.96875 1264.125 677.023438 1281.957031 711.835938 1299.597656 C 712.742188 1300.042969 713.835938 1299.671875 714.28125 1298.769531 C 714.335938 1298.660156 714.378906 1298.546875 714.410156 1298.425781 Z M 714.410156 1298.425781 " fill-opacity="1" fill-rule="nonzero"/></g><g fill="#0097b2" fill-opacity="1"><g transform="translate(83.01954, 512.144437)"><g><path d="M 12.453125 -105 L 60.15625 -105 C 71.550781 -105 81.625 -102.820312 90.375 -98.46875 C 99.125 -94.125 105.921875 -88 110.765625 -80.09375 C 115.617188 -72.195312 118.046875 -63 118.046875 -52.5 C 118.046875 -42 115.617188 -32.796875 110.765625 -24.890625 C 105.921875 -16.992188 99.125 -10.867188 90.375 -6.515625 C 81.625 -2.171875 71.550781 0 60.15625 0 L 12.453125 0 Z M 58.953125 -19.953125 C 69.453125 -19.953125 77.828125 -22.875 84.078125 -28.71875 C 90.328125 -34.570312 93.453125 -42.5 93.453125 -52.5 C 93.453125 -62.5 90.328125 -70.421875 84.078125 -76.265625 C 77.828125 -82.117188 69.453125 -85.046875 58.953125 -85.046875 L 36.75 -85.046875 L 36.75 -19.953125 Z M 58.953125 -19.953125 "/></g></g></g><g fill="#0097b2" fill-opacity="1"><g transform="translate(206.919561, 512.144437)"><g><path d="M 63.296875 1.796875 C 52.398438 1.796875 42.578125 -0.550781 33.828125 -5.25 C 25.078125 -9.945312 18.222656 -16.421875 13.265625 -24.671875 C 8.316406 -32.921875 5.84375 -42.195312 5.84375 -52.5 C 5.84375 -62.800781 8.316406 -72.078125 13.265625 -80.328125 C 18.222656 -88.578125 25.078125 -95.050781 33.828125 -99.75 C 42.578125 -104.445312 52.398438 -106.796875 63.296875 -106.796875 C 74.203125 -106.796875 84.003906 -104.445312 92.703125 -99.75 C 101.398438 -95.050781 108.25 -88.578125 113.25 -80.328125 C 118.25 -72.078125 120.75 -62.800781 120.75 -52.5 C 120.75 -42.195312 118.25 -32.921875 113.25 -24.671875 C 108.25 -16.421875 101.398438 -9.945312 92.703125 -5.25 C 84.003906 -0.550781 74.203125 1.796875 63.296875 1.796875 Z M 63.296875 -18.90625 C 69.492188 -18.90625 75.09375 -20.328125 80.09375 -23.171875 C 85.09375 -26.023438 89.019531 -30 91.875 -35.09375 C 94.726562 -40.195312 96.15625 -46 96.15625 -52.5 C 96.15625 -59 94.726562 -64.796875 91.875 -69.890625 C 89.019531 -74.992188 85.09375 -78.96875 80.09375 -81.8125 C 75.09375 -84.664062 69.492188 -86.09375 63.296875 -86.09375 C 57.097656 -86.09375 51.5 -84.664062 46.5 -81.8125 C 41.5 -78.96875 37.570312 -74.992188 34.71875 -69.890625 C 31.875 -64.796875 30.453125 -59 30.453125 -52.5 C 30.453125 -46 31.875 -40.195312 34.71875 -35.09375 C 37.570312 -30 41.5 -26.023438 46.5 -23.171875 C 51.5 -20.328125 57.097656 -18.90625 63.296875 -18.90625 Z M 63.296875 -18.90625 "/></g></g></g><g fill="#0097b2" fill-opacity="1"><g transform="translate(333.519565, 512.144437)"><g><path d="M 108 0 L 107.84375 -63 L 76.953125 -11.09375 L 66 -11.09375 L 35.25 -61.65625 L 35.25 0 L 12.453125 0 L 12.453125 -105 L 32.546875 -105 L 71.84375 -39.75 L 110.546875 -105 L 130.5 -105 L 130.796875 0 Z M 108 0 "/></g></g></g><g fill="#0097b2" fill-opacity="1"><g transform="translate(476.769598, 512.144437)"><g><path d="M 81.59375 -22.5 L 32.84375 -22.5 L 23.546875 0 L -1.34375 0 L 45.453125 -105 L 69.453125 -105 L 116.40625 0 L 90.90625 0 Z M 73.953125 -40.953125 L 57.296875 -81.15625 L 40.65625 -40.953125 Z M 73.953125 -40.953125 "/></g></g></g><g fill="#7ed957" fill-opacity="1"><g transform="translate(591.671843, 512.144437)"><g><path d="M 36.75 -85.5 L 36.75 -57.75 L 85.34375 -57.75 L 85.34375 -38.25 L 36.75 -38.25 L 36.75 0 L 12.453125 0 L 12.453125 -105 L 91.796875 -105 L 91.796875 -85.5 Z M 36.75 -85.5 "/></g></g></g><g fill="#7ed957" fill-opacity="1"><g transform="translate(686.471865, 512.144437)"><g><path d="M 63.296875 1.796875 C 52.398438 1.796875 42.578125 -0.550781 33.828125 -5.25 C 25.078125 -9.945312 18.222656 -16.421875 13.265625 -24.671875 C 8.316406 -32.921875 5.84375 -42.195312 5.84375 -52.5 C 5.84375 -62.800781 8.316406 -72.078125 13.265625 -80.328125 C 18.222656 -88.578125 25.078125 -95.050781 33.828125 -99.75 C 42.578125 -104.445312 52.398438 -106.796875 63.296875 -106.796875 C 74.203125 -106.796875 84.003906 -104.445312 92.703125 -99.75 C 101.398438 -95.050781 108.25 -88.578125 113.25 -80.328125 C 118.25 -72.078125 120.75 -62.800781 120.75 -52.5 C 120.75 -42.195312 118.25 -32.921875 113.25 -24.671875 C 108.25 -16.421875 101.398438 -9.945312 92.703125 -5.25 C 84.003906 -0.550781 74.203125 1.796875 63.296875 1.796875 Z M 63.296875 -18.90625 C 69.492188 -18.90625 75.09375 -20.328125 80.09375 -23.171875 C 85.09375 -26.023438 89.019531 -30 91.875 -35.09375 C 94.726562 -40.195312 96.15625 -46 96.15625 -52.5 C 96.15625 -59 94.726562 -64.796875 91.875 -69.890625 C 89.019531 -74.992188 85.09375 -78.96875 80.09375 -81.8125 C 75.09375 -84.664062 69.492188 -86.09375 63.296875 -86.09375 C 57.097656 -86.09375 51.5 -84.664062 46.5 -81.8125 C 41.5 -78.96875 37.570312 -74.992188 34.71875 -69.890625 C 31.875 -64.796875 30.453125 -59 30.453125 -52.5 C 30.453125 -46 31.875 -40.195312 34.71875 -35.09375 C 37.570312 -30 41.5 -26.023438 46.5 -23.171875 C 51.5 -20.328125 57.097656 -18.90625 63.296875 -18.90625 Z M 63.296875 -18.90625 "/></g></g></g><g fill="#7ed957" fill-opacity="1"><g transform="translate(813.071877, 512.144437)"><g><path d="M 79.34375 0 L 59.09375 -29.25 L 36.75 -29.25 L 36.75 0 L 12.453125 0 L 12.453125 -105 L 57.90625 -105 C 67.195312 -105 75.269531 -103.445312 82.125 -100.34375 C 88.976562 -97.25 94.253906 -92.847656 97.953125 -87.140625 C 101.648438 -81.441406 103.5 -74.695312 103.5 -66.90625 C 103.5 -59.101562 101.625 -52.375 97.875 -46.71875 C 94.125 -41.070312 88.800781 -36.75 81.90625 -33.75 L 105.453125 0 Z M 78.90625 -66.90625 C 78.90625 -72.800781 77.003906 -77.320312 73.203125 -80.46875 C 69.398438 -83.625 63.847656 -85.203125 56.546875 -85.203125 L 36.75 -85.203125 L 36.75 -48.59375 L 56.546875 -48.59375 C 63.847656 -48.59375 69.398438 -50.191406 73.203125 -53.390625 C 77.003906 -56.597656 78.90625 -61.101562 78.90625 -66.90625 Z M 78.90625 -66.90625 "/></g></g></g><g fill="#7ed957" fill-opacity="1"><g transform="translate(923.321891, 512.144437)"><g><path d="M 108 0 L 107.84375 -63 L 76.953125 -11.09375 L 66 -11.09375 L 35.25 -61.65625 L 35.25 0 L 12.453125 0 L 12.453125 -105 L 32.546875 -105 L 71.84375 -39.75 L 110.546875 -105 L 130.5 -105 L 130.796875 0 Z M 108 0 "/></g></g></g><g fill="#7ed957" fill-opacity="1"><g transform="translate(1066.571901, 512.144437)"><g><path d="M 81.59375 -22.5 L 32.84375 -22.5 L 23.546875 0 L -1.34375 0 L 45.453125 -105 L 69.453125 -105 L 116.40625 0 L 90.90625 0 Z M 73.953125 -40.953125 L 57.296875 -81.15625 L 40.65625 -40.953125 Z M 73.953125 -40.953125 "/></g></g></g><g fill="#7ed957" fill-opacity="1"><g transform="translate(1181.471946, 512.144437)"><g><path d="M 12.453125 -105 L 36.75 -105 L 36.75 -19.796875 L 89.40625 -19.796875 L 89.40625 0 L 12.453125 0 Z M 12.453125 -105 "/></g></g></g><g fill="#7ed957" fill-opacity="1"><g transform="translate(1272.071929, 512.144437)"><g><path d="M 12.453125 -105 L 36.75 -105 L 36.75 0 L 12.453125 0 Z M 12.453125 -105 "/></g></g></g><g fill="#7ed957" fill-opacity="1"><g transform="translate(1321.271952, 512.144437)"><g><path d="M 46.953125 1.796875 C 38.648438 1.796875 30.625 0.671875 22.875 -1.578125 C 15.125 -3.828125 8.898438 -6.75 4.203125 -10.34375 L 12.453125 -28.65625 C 16.953125 -25.351562 22.300781 -22.703125 28.5 -20.703125 C 34.695312 -18.703125 40.894531 -17.703125 47.09375 -17.703125 C 54 -17.703125 59.097656 -18.722656 62.390625 -20.765625 C 65.691406 -22.816406 67.34375 -25.546875 67.34375 -28.953125 C 67.34375 -31.453125 66.367188 -33.523438 64.421875 -35.171875 C 62.472656 -36.828125 59.972656 -38.15625 56.921875 -39.15625 C 53.867188 -40.15625 49.742188 -41.253906 44.546875 -42.453125 C 36.546875 -44.347656 29.992188 -46.242188 24.890625 -48.140625 C 19.796875 -50.046875 15.421875 -53.097656 11.765625 -57.296875 C 8.117188 -61.492188 6.296875 -67.09375 6.296875 -74.09375 C 6.296875 -80.195312 7.945312 -85.722656 11.25 -90.671875 C 14.550781 -95.617188 19.523438 -99.539062 26.171875 -102.4375 C 32.828125 -105.34375 40.953125 -106.796875 50.546875 -106.796875 C 57.242188 -106.796875 63.789062 -105.992188 70.1875 -104.390625 C 76.59375 -102.796875 82.195312 -100.5 87 -97.5 L 79.5 -79.046875 C 69.800781 -84.546875 60.101562 -87.296875 50.40625 -87.296875 C 43.601562 -87.296875 38.578125 -86.195312 35.328125 -84 C 32.078125 -81.800781 30.453125 -78.898438 30.453125 -75.296875 C 30.453125 -71.703125 32.328125 -69.03125 36.078125 -67.28125 C 39.828125 -65.53125 45.550781 -63.800781 53.25 -62.09375 C 61.25 -60.195312 67.796875 -58.296875 72.890625 -56.390625 C 77.992188 -54.492188 82.367188 -51.492188 86.015625 -47.390625 C 89.671875 -43.296875 91.5 -37.75 91.5 -30.75 C 91.5 -24.75 89.820312 -19.273438 86.46875 -14.328125 C 83.125 -9.378906 78.097656 -5.453125 71.390625 -2.546875 C 64.691406 0.347656 56.546875 1.796875 46.953125 1.796875 Z M 46.953125 1.796875 "/></g></g></g></svg>